<?xml version="1.0" standalone="no"?><!DOCTYPE svg PUBLIC "-//W3C//DTD SVG 1.1//EN" "http://www.w3.org/Graphics/SVG/1.1/DTD/svg11.dtd"><svg t="1742285543458" class="icon" viewBox="0 0 1024 1024" version="1.1" xmlns="http://www.w3.org/2000/svg" p-id="5678" width="256" height="256" xmlns:xlink="http://www.w3.org/1999/xlink"><path d="M145.066667 290.133333c12.8 12.8 34.133333 8.533333 42.666666-4.266666C234.666667 217.6 294.4 170.666667 366.933333 140.8 345.6 174.933333 328.533333 213.333333 315.733333 256c-4.266667 17.066667 4.266667 34.133333 21.333334 38.4 4.266667 4.266667 4.266667 4.266667 8.533333 4.266667s8.533333 0 12.8-4.266667c8.533333-4.266667 17.066667-8.533333 17.066667-17.066667 34.133333-98.133333 81.066667-157.866667 128-157.866666s98.133333 59.733333 128 157.866666c4.266667 12.8 17.066667 21.333333 29.866666 21.333334 4.266667 0 8.533333 0 8.533334-4.266667 17.066667-4.266667 25.6-21.333333 21.333333-38.4-4.266667-21.333333-12.8-38.4-21.333333-55.466667-4.266667-4.266667-4.266667-12.8-8.533334-17.066666-4.266667-8.533333-8.533333-21.333333-17.066666-29.866667-4.266667-4.266667-4.266667-12.8-8.533334-17.066667 72.533333 29.866667 132.266667 76.8 179.2 140.8 8.533333 17.066667 29.866667 17.066667 42.666667 8.533334 17.066667-8.533333 17.066667-29.866667 8.533333-42.666667-85.333333-123.733333-221.866667-196.266667-366.933333-196.266667-145.066667 0-281.6 72.533333-366.933333 196.266667-8.533333 17.066667-4.266667 38.4 12.8 46.933333zM819.2 738.133333c-46.933333 64-106.666667 115.2-179.2 140.8 21.333333-29.866667 38.4-68.266667 51.2-110.933333v-12.8c0-12.8-8.533333-25.6-21.333333-29.866667-12.8-4.266667-34.133333 4.266667-38.4 21.333334-34.133333 98.133333-81.066667 157.866667-128 157.866666-4.266667 0-8.533333 0-12.8 4.266667-42.666667-8.533333-89.6-68.266667-115.2-157.866667-4.266667-17.066667-21.333333-25.6-38.4-21.333333-17.066667 4.266667-25.6 21.333333-21.333334 38.4 12.8 42.666667 29.866667 81.066667 51.2 115.2-72.533333-25.6-132.266667-76.8-179.2-140.8-8.533333-17.066667-29.866667-17.066667-42.666666-8.533333-17.066667 8.533333-17.066667 29.866667-8.533334 42.666666 85.333333 123.733333 221.866667 196.266667 366.933334 196.266667 145.066667 0 285.866667-76.8 366.933333-200.533333 8.533333-12.8 4.266667-34.133333-8.533333-42.666667-12.8-8.533333-34.133333-4.266667-42.666667 8.533333zM942.933333 358.4c-17.066667-4.266667-34.133333 4.266667-38.4 21.333333l-34.133333 128-34.133333-128c0-17.066667-17.066667-25.6-29.866667-25.6-12.8 0-25.6 12.8-29.866667 25.6l-34.133333 128-34.133333-128c-4.266667-17.066667-21.333333-25.6-38.4-21.333333-8.533333 0-12.8 4.266667-12.8 8.533333-4.266667-4.266667-8.533333-8.533333-17.066667-8.533333-17.066667-4.266667-34.133333 4.266667-38.4 21.333333l-34.133333 128-34.133334-128c0-17.066667-17.066667-25.6-29.866666-25.6s-25.6 12.8-29.866667 25.6l-34.133333 128-34.133334-128c-4.266667-17.066667-21.333333-29.866667-38.4-25.6-4.266667 0-8.533333 4.266667-8.533333 8.533334 0 0-4.266667-4.266667-8.533333-4.266667-17.066667-4.266667-34.133333 4.266667-38.4 21.333333l-34.133334 128-34.133333-128c0-17.066667-17.066667-25.6-29.866667-25.6s-25.6 12.8-29.866666 21.333334l-34.133334 128-34.133333-128c-4.266667-17.066667-21.333333-25.6-38.4-21.333334-17.066667 8.533333-25.6 25.6-21.333333 42.666667l64 247.466667c4.266667 17.066667 17.066667 25.6 29.866666 25.6s25.6-12.8 29.866667-25.6L213.333333 512l38.4 132.266667c4.266667 17.066667 17.066667 25.6 29.866667 25.6 12.8 0 25.6-12.8 25.6-25.6l51.2-196.266667 51.2 196.266667c4.266667 17.066667 17.066667 25.6 29.866667 25.6 17.066667 0 25.6-12.8 29.866666-25.6l34.133334-132.266667 38.4 132.266667c4.266667 17.066667 17.066667 25.6 29.866666 25.6 12.8 0 25.6-12.8 25.6-25.6l59.733334-221.866667 55.466666 221.866667c4.266667 17.066667 17.066667 25.6 29.866667 25.6 17.066667 0 29.866667-12.8 34.133333-25.6L810.666667 512l29.866666 132.266667c4.266667 17.066667 17.066667 25.6 29.866667 25.6 12.8 0 25.6-12.8 29.866667-25.6l64-247.466667c4.266667-17.066667-4.266667-34.133333-21.333334-38.4z" p-id="5679" fill="#d81e06"></path></svg>